<!-- Generated by IcoMoon.io -->
<svg version="1.1" xmlns="http://www.w3.org/2000/svg" width="75" height="75" viewBox="0 0 32 32">
<title>cream</title>
<path fill="#fff" d="M21.607 8.815c-0.458 0-0.918 0.032-1.372 0.092-0.695-0.523-1.534-0.865-2.445-0.957-0.474-3.298-5.555-5.485-5.782-5.581-0.174-0.074-0.374-0.049-0.524 0.065s-0.229 0.299-0.206 0.486c0.386 3.139-5.585 7.748-8.087 9.374h-0.736c-0.292 0-0.528 0.237-0.528 0.528v1.29h-0.109c-0.292 0-0.528 0.237-0.528 0.528s0.237 0.528 0.528 0.528h0.109v0.761h-1.398c-0.15 0-0.294 0.064-0.394 0.176s-0.148 0.261-0.132 0.411l1.061 9.549c0.228 2.055 1.959 3.604 4.027 3.604h14.832c0.309 0 0.61-0.035 0.899-0.101 0.264 0.020 0.528 0.030 0.785 0.030 5.731 0 10.393-4.662 10.393-10.393s-4.662-10.393-10.393-10.393zM8.123 9.818c2.573-2.319 3.981-4.375 4.199-6.127 0.511 0.263 1.229 0.666 1.938 1.178 1.047 0.757 2.278 1.902 2.48 3.206l-5.176 1.621c-0.279 0.087-0.434 0.384-0.346 0.662 0.071 0.226 0.28 0.371 0.505 0.371 0.052-0 0.105-0.008 0.157-0.024l5.496-1.722c1.537 0.031 2.856 0.97 3.44 2.301 0.006 0.013 0.012 0.026 0.017 0.039 0.017 0.039 0.032 0.078 0.047 0.117 0.008 0.021 0.016 0.043 0.024 0.064 0.013 0.035 0.026 0.070 0.038 0.106 0.010 0.031 0.020 0.062 0.029 0.093 0.009 0.029 0.018 0.058 0.027 0.088 0.016 0.058 0.031 0.116 0.044 0.175 0.005 0.022 0.009 0.044 0.014 0.066 0.009 0.042 0.017 0.085 0.025 0.127 0.004 0.024 0.008 0.047 0.012 0.071 0.003 0.021 0.006 0.043 0.009 0.065h-14.299l2.969-0.93c0.279-0.087 0.434-0.384 0.346-0.662-0.071-0.226-0.28-0.371-0.505-0.371-0.052 0-0.105 0.008-0.157 0.024l-3.149 0.986c0.575-0.452 1.197-0.967 1.817-1.525zM2.984 13.352h0.362c0 0 0.001 0 0.001 0s0.001-0 0.001-0h18.682v0.761h-19.047v-0.761zM20.65 28.525c-0.003 0.001-0.006 0.002-0.009 0.003-0.23 0.057-0.471 0.087-0.718 0.087h-14.832c-1.528 0-2.808-1.145-2.976-2.664l-0.996-8.962h1.336c0.292 0 0.528-0.237 0.528-0.528v-1.29h19.047v0.761h-17.461c-0.292 0-0.528 0.237-0.528 0.528s0.237 0.528 0.528 0.528h19.326l-0.996 8.962c-0.005 0.043-0.011 0.085-0.017 0.128-0.003 0.019-0.006 0.037-0.009 0.056-0.004 0.022-0.008 0.044-0.012 0.065-0.005 0.026-0.011 0.051-0.016 0.077-0.002 0.011-0.005 0.022-0.008 0.033-0.256 1.076-1.098 1.944-2.187 2.216zM22.806 28.468c0.505-0.511 0.876-1.157 1.053-1.886 0.001-0.006 0.003-0.011 0.004-0.017 0.012-0.048 0.023-0.097 0.032-0.146 0.005-0.023 0.008-0.046 0.012-0.068 0.006-0.034 0.013-0.068 0.018-0.103 0.009-0.059 0.017-0.119 0.024-0.179l1.061-9.549c0.017-0.149-0.031-0.299-0.131-0.411s-0.243-0.176-0.394-0.176h-1.398v-0.762c0.287-0.006 0.517-0.24 0.517-0.528s-0.231-0.522-0.517-0.528v-1.29c0-0.292-0.237-0.528-0.528-0.528h-0.392c-0.007-0.066-0.016-0.132-0.026-0.198-0.002-0.016-0.005-0.032-0.008-0.048-0.010-0.063-0.021-0.127-0.034-0.19-0.002-0.010-0.004-0.020-0.006-0.030-0.015-0.074-0.032-0.147-0.051-0.22-0.002-0.007-0.004-0.014-0.006-0.021-0.16-0.617-0.44-1.197-0.824-1.707 0.131-0.005 0.263-0.008 0.394-0.008 5.148 0 9.336 4.188 9.336 9.336 0 4.742-3.553 8.669-8.137 9.259z"></path>
</svg>
