<!-- Generated by IcoMoon.io -->
<svg version="1.1" xmlns="http://www.w3.org/2000/svg" width="75" height="75" viewBox="0 0 32 32">
<title>kid-hair</title>
<path fill="#fff" d="M19.651 16.342c0.828 0 1.499-0.634 1.499-1.414s-0.671-1.414-1.499-1.414c-0.827 0-1.497 0.634-1.497 1.414s0.669 1.414 1.497 1.414zM19.345 14.377c0.425 0 0.768 0.325 0.768 0.725-0.001 0.401-0.343 0.727-0.768 0.727s-0.768-0.325-0.768-0.727c-0-0.4 0.344-0.725 0.768-0.725z"></path>
<path fill="#fff" d="M6.985 17.727c0.838 1.396 2.067 2.664 3.494 3.601 1.682 1.103 3.54 1.692 5.379 1.707v0.001c0.003 0 0.006-0 0.009-0s0.006 0 0.009 0v-0.001c1.839-0.015 3.697-0.603 5.379-1.707 1.428-0.937 2.656-2.205 3.494-3.601 1.043-0.048 1.626-0.533 1.935-0.943 0.407-0.54 0.613-1.297 0.613-2.251 0-1.65-0.596-2.783-1.69-3.247 0.154-0.939 0.153-2.036-0.118-3.338-0.175-0.841-0.667-1.509-1.337-2.072-2.488-2.093-7.317-2.105-7.542-5.128-0.049-0.554-0.391-0.846-1.221-0.716-4.884 0.766-7.164 3.191-8.403 5.831-0.281 0.482-0.573 1.255-0.746 2.085-0.271 1.303-0.271 2.4-0.118 3.339-1.094 0.464-1.69 1.597-1.69 3.247 0 0.954 0.206 1.712 0.613 2.251 0.309 0.41 0.893 0.895 1.935 0.943zM6.88 12.405c0.772-0.149 0.601-1.419 1.607-2.052 1.28-0.805 4.080 1.748 7.365 1.748s6.178-2.643 7.397-1.748c0.641 0.47 0.9 1.851 1.607 2.052s1.141 0.892 1.141 2.128c0 1.671-0.716 1.896-1.416 1.896-0.042 0-0.092-0.004-0.152-0.009l-0.421-0.034-0.202 0.371c-1.302 2.384-4.337 4.947-7.939 4.977-3.602-0.029-6.637-2.593-7.939-4.977l-0.202-0.371-0.421 0.034c-0.060 0.005-0.11 0.009-0.152 0.009-0.7 0-1.416-0.225-1.416-1.896 0-1.236 0.369-1.978 1.141-2.128z"></path>
<path fill="#fff" d="M12.086 16.342c0.828 0 1.497-0.634 1.497-1.414s-0.67-1.414-1.497-1.414c-0.828 0-1.499 0.634-1.499 1.414s0.671 1.414 1.499 1.414zM12.392 14.377c0.425 0 0.768 0.325 0.768 0.725 0 0.401-0.344 0.727-0.768 0.727s-0.767-0.325-0.768-0.727c0-0.4 0.343-0.725 0.768-0.725z"></path>
<path fill="#fff" d="M22.017 22.416c-0.535 0.004-0.912 0.226-1.076 0.309-0.125 0.062-3.531 2.032-4.242 2.458-0.29 0.174-0.514 0.239-0.698 0.245-0.184-0.006-0.408-0.071-0.698-0.245-0.711-0.426-4.118-2.396-4.243-2.458-0.164-0.082-0.541-0.305-1.076-0.309-2.551 0.010-5.566 2.236-5.566 5.013v4.571h23.166v-4.571c0-2.777-3.015-5.003-5.566-5.013zM15.144 30.526h-9.253v-3.097c0-1.773 2.051-3.36 3.8-3.524-0.164 1.148-0.532 2.762-0.557 2.872-0 0.001-0.001 0.003-0.001 0.004s-0.001 0.002-0.001 0.002l0 0c-0.008 0.038-0.012 0.078-0.012 0.119 0 0.331 0.266 0.6 0.596 0.606 0.019 0.002 0.038 0.003 0.057 0.001 1.137-0.135 3.518-0.786 4.832-1.022l0.537 0.311 0 3.727zM26.109 30.526h-9.253v-3.727l0.537-0.311c1.314 0.236 3.695 0.887 4.832 1.022 0.019 0.002 0.038 0.002 0.057-0.001 0.33-0.006 0.596-0.275 0.596-0.606 0-0.041-0.004-0.080-0.012-0.119l0-0c0 0-0-0.002-0.001-0.002s-0.001-0.003-0.001-0.004c-0.025-0.11-0.393-1.724-0.557-2.872 1.749 0.164 3.8 1.751 3.8 3.524v3.097h0z"></path>
<path fill="#fff" d="M24.769 29.019c0 0.236-0.188 0.427-0.418 0.427h-4.215c-0.231 0-0.419-0.191-0.419-0.427v-0.214c0-0.236 0.187-0.427 0.419-0.427h4.215c0.231 0 0.418 0.191 0.418 0.427v0.214z"></path>
</svg>
